STARTFONT 2.1
COMMENT Designed by Serge Vakulenko <vak@kiae.su>, Moscow.
COMMENT February 1991
COMMENT -Misc-Fixed-Medium-R-Normal--10-100-75-75-C-60-ALT-1
FONT alt6x10
SIZE 10 75 75
FONTBOUNDINGBOX 6 10 0 -2
STARTPROPERTIES 19
FONTNAME_REGISTRY ""
FOUNDRY "Misc"
FAMILY_NAME "Fixed"
WEIGHT_NAME "Medium"
SLANT "R"
SETWIDTH_NAME "Normal"
ADD_STYLE_NAME ""
PIXEL_SIZE 10
POINT_SIZE 100
RESOLUTION_X 75
RESOLUTION_Y 75
SPACING "C"
AVERAGE_WIDTH 60
CHARSET_REGISTRY "ALT"
CHARSET_ENCODING "1"
FONT_ASCENT 8
FONT_DESCENT 2
DEFAULT_CHAR 0
COPYRIGHT "Public domain font.  Share and enjoy."
ENDPROPERTIES
CHARS 256
STARTCHAR C000
ENCODING 0
SWIDTH 666 0
DWIDTH 6 0
BBX 6 10 0 -2
BITMAP
00
00
00
00
00
00
00
00
00
00
ENDCHAR
STARTCHAR C001
ENCODING 1
SWIDTH 666 0
DWIDTH 6 0
BBX 6 10 0 -2
BITMAP
00
10
38
38
7c
38
38
10
00
00
ENDCHAR
STARTCHAR C002
ENCODING 2
SWIDTH 666 0
DWIDTH 6 0
BBX 6 10 0 -2
BITMAP
00
54
28
54
28
14
28
54
00
00
ENDCHAR
STARTCHAR C003
ENCODING 3
SWIDTH 666 0
DWIDTH 6 0
BBX 6 10 0 -2
BITMAP
00
48
48
78
48
48
3c
08
08
08
ENDCHAR
STARTCHAR C004
ENCODING 4
SWIDTH 666 0
DWIDTH 6 0
BBX 6 10 0 -2
BITMAP
00
70
40
60
40
5c
10
18
10
10
ENDCHAR
STARTCHAR C005
ENCODING 5
SWIDTH 666 0
DWIDTH 6 0
BBX 6 10 0 -2
BITMAP
00
38
40
40
38
38
24
38
24
24
ENDCHAR
STARTCHAR C006
ENCODING 6
SWIDTH 666 0
DWIDTH 6 0
BBX 6 10 0 -2
BITMAP
00
40
40
40
78
3c
20
38
20
20
ENDCHAR
STARTCHAR C007
ENCODING 7
SWIDTH 666 0
DWIDTH 6 0
BBX 6 10 0 -2
BITMAP
00
38
28
28
38
00
00
00
00
00
ENDCHAR
STARTCHAR C010
ENCODING 8
SWIDTH 666 0
DWIDTH 6 0
BBX 6 10 0 -2
BITMAP
00
00
10
10
7c
10
10
7c
00
00
ENDCHAR
STARTCHAR C011
ENCODING 9
SWIDTH 666 0
DWIDTH 6 0
BBX 6 10 0 -2
BITMAP
00
48
68
68
58
48
20
20
20
3c
ENDCHAR
STARTCHAR C012
ENCODING 10
SWIDTH 666 0
DWIDTH 6 0
BBX 6 10 0 -2
BITMAP
00
48
48
30
20
3c
08
08
08
08
ENDCHAR
STARTCHAR C013
ENCODING 11
SWIDTH 666 0
DWIDTH 6 0
BBX 6 10 0 -2
BITMAP
10
10
10
10
f0
00
00
00
00
00
ENDCHAR
STARTCHAR C014
ENCODING 12
SWIDTH 666 0
DWIDTH 6 0
BBX 6 10 0 -2
BITMAP
00
00
00
00
f0
10
10
10
10
10
ENDCHAR
STARTCHAR C015
ENCODING 13
SWIDTH 666 0
DWIDTH 6 0
BBX 6 10 0 -2
BITMAP
00
00
00
00
1c
10
10
10
10
10
ENDCHAR
STARTCHAR C016
ENCODING 14
SWIDTH 666 0
DWIDTH 6 0
BBX 6 10 0 -2
BITMAP
10
10
10
10
1c
00
00
00
00
00
ENDCHAR
STARTCHAR C017
ENCODING 15
SWIDTH 666 0
DWIDTH 6 0
BBX 6 10 0 -2
BITMAP
10
10
10
10
fc
10
10
10
10
10
ENDCHAR
STARTCHAR C020
ENCODING 16
SWIDTH 666 0
DWIDTH 6 0
BBX 6 10 0 -2
BITMAP
fc
00
00
00
00
00
00
00
00
00
ENDCHAR
STARTCHAR C021
ENCODING 17
SWIDTH 666 0
DWIDTH 6 0
BBX 6 10 0 -2
BITMAP
00
00
fc
00
00
00
00
00
00
00
ENDCHAR
STARTCHAR C022
ENCODING 18
SWIDTH 666 0
DWIDTH 6 0
BBX 6 10 0 -2
BITMAP
00
00
00
00
fc
00
00
00
00
00
ENDCHAR
STARTCHAR C023
ENCODING 19
SWIDTH 666 0
DWIDTH 6 0
BBX 6 10 0 -2
BITMAP
00
00
00
00
00
00
fc
00
00
00
ENDCHAR
STARTCHAR C024
ENCODING 20
SWIDTH 666 0
DWIDTH 6 0
BBX 6 10 0 -2
BITMAP
00
00
00
00
00
00
00
00
fc
00
ENDCHAR
STARTCHAR C025
ENCODING 21
SWIDTH 666 0
DWIDTH 6 0
BBX 6 10 0 -2
BITMAP
10
10
10
10
1c
10
10
10
10
10
ENDCHAR
STARTCHAR C026
ENCODING 22
SWIDTH 666 0
DWIDTH 6 0
BBX 6 10 0 -2
BITMAP
10
10
10
10
f0
10
10
10
10
10
ENDCHAR
STARTCHAR C027
ENCODING 23
SWIDTH 666 0
DWIDTH 6 0
BBX 6 10 0 -2
BITMAP
10
10
10
10
fc
00
00
00
00
00
ENDCHAR
STARTCHAR C030
ENCODING 24
SWIDTH 666 0
DWIDTH 6 0
BBX 6 10 0 -2
BITMAP
00
00
00
00
fc
10
10
10
10
10
ENDCHAR
STARTCHAR C031
ENCODING 25
SWIDTH 666 0
DWIDTH 6 0
BBX 6 10 0 -2
BITMAP
10
10
10
10
10
10
10
10
10
10
ENDCHAR
STARTCHAR C032
ENCODING 26
SWIDTH 666 0
DWIDTH 6 0
BBX 6 10 0 -2
BITMAP
00
04
08
20
40
20
08
04
7c
00
ENDCHAR
STARTCHAR C033
ENCODING 27
SWIDTH 666 0
DWIDTH 6 0
BBX 6 10 0 -2
BITMAP
00
40
20
08
04
08
20
40
7c
00
ENDCHAR
STARTCHAR C034
ENCODING 28
SWIDTH 666 0
DWIDTH 6 0
BBX 6 10 0 -2
BITMAP
00
00
00
7c
28
28
28
28
00
00
ENDCHAR
STARTCHAR C035
ENCODING 29
SWIDTH 666 0
DWIDTH 6 0
BBX 6 10 0 -2
BITMAP
00
04
08
7c
10
7c
20
40
00
00
ENDCHAR
STARTCHAR C036
ENCODING 30
SWIDTH 666 0
DWIDTH 6 0
BBX 6 10 0 -2
BITMAP
00
18
24
20
78
20
38
6c
20
00
ENDCHAR
STARTCHAR C037
ENCODING 31
SWIDTH 666 0
DWIDTH 6 0
BBX 6 10 0 -2
BITMAP
00
00
00
00
10
00
00
00
00
00
ENDCHAR
STARTCHAR C040
ENCODING 32
SWIDTH 666 0
DWIDTH 6 0
BBX 6 10 0 -2
BITMAP
00
00
00
00
00
00
00
00
00
00
ENDCHAR
STARTCHAR !
ENCODING 33
SWIDTH 666 0
DWIDTH 6 0
BBX 6 10 0 -2
BITMAP
00
10
10
10
10
10
00
10
00
00
ENDCHAR
STARTCHAR "
ENCODING 34
SWIDTH 666 0
DWIDTH 6 0
BBX 6 10 0 -2
BITMAP
00
28
28
28
00
00
00
00
00
00
ENDCHAR
STARTCHAR #
ENCODING 35
SWIDTH 666 0
DWIDTH 6 0
BBX 6 10 0 -2
BITMAP
00
28
28
7c
28
7c
28
28
00
00
ENDCHAR
STARTCHAR $
ENCODING 36
SWIDTH 666 0
DWIDTH 6 0
BBX 6 10 0 -2
BITMAP
00
10
38
50
38
14
38
10
00
00
ENDCHAR
STARTCHAR %
ENCODING 37
SWIDTH 666 0
DWIDTH 6 0
BBX 6 10 0 -2
BITMAP
00
24
54
28
10
28
54
48
00
00
ENDCHAR
STARTCHAR &
ENCODING 38
SWIDTH 666 0
DWIDTH 6 0
BBX 6 10 0 -2
BITMAP
00
20
50
50
20
54
48
34
00
00
ENDCHAR
STARTCHAR '
ENCODING 39
SWIDTH 666 0
DWIDTH 6 0
BBX 6 10 0 -2
BITMAP
00
18
10
20
00
00
00
00
00
00
ENDCHAR
STARTCHAR (
ENCODING 40
SWIDTH 666 0
DWIDTH 6 0
BBX 6 10 0 -2
BITMAP
00
08
10
20
20
20
10
08
00
00
ENDCHAR
STARTCHAR )
ENCODING 41
SWIDTH 666 0
DWIDTH 6 0
BBX 6 10 0 -2
BITMAP
00
20
10
08
08
08
10
20
00
00
ENDCHAR
STARTCHAR *
ENCODING 42
SWIDTH 666 0
DWIDTH 6 0
BBX 6 10 0 -2
BITMAP
00
00
44
28
7c
28
44
00
00
00
ENDCHAR
STARTCHAR +
ENCODING 43
SWIDTH 666 0
DWIDTH 6 0
BBX 6 10 0 -2
BITMAP
00
00
10
10
7c
10
10
00
00
00
ENDCHAR
STARTCHAR ,
ENCODING 44
SWIDTH 666 0
DWIDTH 6 0
BBX 6 10 0 -2
BITMAP
00
00
00
00
00
00
18
10
20
00
ENDCHAR
STARTCHAR -
ENCODING 45
SWIDTH 666 0
DWIDTH 6 0
BBX 6 10 0 -2
BITMAP
00
00
00
00
7c
00
00
00
00
00
ENDCHAR
STARTCHAR .
ENCODING 46
SWIDTH 666 0
DWIDTH 6 0
BBX 6 10 0 -2
BITMAP
00
00
00
00
00
00
10
38
10
00
ENDCHAR
STARTCHAR /
ENCODING 47
SWIDTH 666 0
DWIDTH 6 0
BBX 6 10 0 -2
BITMAP
00
04
04
08
10
20
40
40
00
00
ENDCHAR
STARTCHAR 0
ENCODING 48
SWIDTH 666 0
DWIDTH 6 0
BBX 6 10 0 -2
BITMAP
00
10
28
44
44
44
28
10
00
00
ENDCHAR
STARTCHAR 1
ENCODING 49
SWIDTH 666 0
DWIDTH 6 0
BBX 6 10 0 -2
BITMAP
00
10
30
50
10
10
10
7c
00
00
ENDCHAR
STARTCHAR 2
ENCODING 50
SWIDTH 666 0
DWIDTH 6 0
BBX 6 10 0 -2
BITMAP
00
38
44
04
18
20
40
7c
00
00
ENDCHAR
STARTCHAR 3
ENCODING 51
SWIDTH 666 0
DWIDTH 6 0
BBX 6 10 0 -2
BITMAP
00
7c
04
08
18
04
44
38
00
00
ENDCHAR
STARTCHAR 4
ENCODING 52
SWIDTH 666 0
DWIDTH 6 0
BBX 6 10 0 -2
BITMAP
00
08
18
28
48
7c
08
08
00
00
ENDCHAR
STARTCHAR 5
ENCODING 53
SWIDTH 666 0
DWIDTH 6 0
BBX 6 10 0 -2
BITMAP
00
7c
40
58
64
04
44
38
00
00
ENDCHAR
STARTCHAR 6
ENCODING 54
SWIDTH 666 0
DWIDTH 6 0
BBX 6 10 0 -2
BITMAP
00
18
20
40
58
64
44
38
00
00
ENDCHAR
STARTCHAR 7
ENCODING 55
SWIDTH 666 0
DWIDTH 6 0
BBX 6 10 0 -2
BITMAP
00
7c
04
08
08
10
20
20
00
00
ENDCHAR
STARTCHAR 8
ENCODING 56
SWIDTH 666 0
DWIDTH 6 0
BBX 6 10 0 -2
BITMAP
00
38
44
44
38
44
44
38
00
00
ENDCHAR
STARTCHAR 9
ENCODING 57
SWIDTH 666 0
DWIDTH 6 0
BBX 6 10 0 -2
BITMAP
00
38
44
4c
34
04
08
30
00
00
ENDCHAR
STARTCHAR :
ENCODING 58
SWIDTH 666 0
DWIDTH 6 0
BBX 6 10 0 -2
BITMAP
00
00
10
38
10
00
10
38
10
00
ENDCHAR
STARTCHAR ;
ENCODING 59
SWIDTH 666 0
DWIDTH 6 0
BBX 6 10 0 -2
BITMAP
00
00
10
38
10
00
18
10
20
00
ENDCHAR
STARTCHAR <
ENCODING 60
SWIDTH 666 0
DWIDTH 6 0
BBX 6 10 0 -2
BITMAP
00
04
08
10
20
10
08
04
00
00
ENDCHAR
STARTCHAR =
ENCODING 61
SWIDTH 666 0
DWIDTH 6 0
BBX 6 10 0 -2
BITMAP
00
00
00
7c
00
7c
00
00
00
00
ENDCHAR
STARTCHAR >
ENCODING 62
SWIDTH 666 0
DWIDTH 6 0
BBX 6 10 0 -2
BITMAP
00
40
20
10
08
10
20
40
00
00
ENDCHAR
STARTCHAR ?
ENCODING 63
SWIDTH 666 0
DWIDTH 6 0
BBX 6 10 0 -2
BITMAP
00
38
44
08
10
10
00
10
00
00
ENDCHAR
STARTCHAR @
ENCODING 64
SWIDTH 666 0
DWIDTH 6 0
BBX 6 10 0 -2
BITMAP
00
38
44
4c
54
58
40
38
00
00
ENDCHAR
STARTCHAR A
ENCODING 65
SWIDTH 666 0
DWIDTH 6 0
BBX 6 10 0 -2
BITMAP
00
10
28
44
44
7c
44
44
00
00
ENDCHAR
STARTCHAR B
ENCODING 66
SWIDTH 666 0
DWIDTH 6 0
BBX 6 10 0 -2
BITMAP
00
78
24
24
38
24
24
78
00
00
ENDCHAR
STARTCHAR C
ENCODING 67
SWIDTH 666 0
DWIDTH 6 0
BBX 6 10 0 -2
BITMAP
00
38
44
40
40
40
44
38
00
00
ENDCHAR
STARTCHAR D
ENCODING 68
SWIDTH 666 0
DWIDTH 6 0
BBX 6 10 0 -2
BITMAP
00
78
24
24
24
24
24
78
00
00
ENDCHAR
STARTCHAR E
ENCODING 69
SWIDTH 666 0
DWIDTH 6 0
BBX 6 10 0 -2
BITMAP
00
7c
40
40
78
40
40
7c
00
00
ENDCHAR
STARTCHAR F
ENCODING 70
SWIDTH 666 0
DWIDTH 6 0
BBX 6 10 0 -2
BITMAP
00
7c
40
40
78
40
40
40
00
00
ENDCHAR
STARTCHAR G
ENCODING 71
SWIDTH 666 0
DWIDTH 6 0
BBX 6 10 0 -2
BITMAP
00
38
44
40
40
4c
44
38
00
00
ENDCHAR
STARTCHAR H
ENCODING 72
SWIDTH 666 0
DWIDTH 6 0
BBX 6 10 0 -2
BITMAP
00
44
44
44
7c
44
44
44
00
00
ENDCHAR
STARTCHAR I
ENCODING 73
SWIDTH 666 0
DWIDTH 6 0
BBX 6 10 0 -2
BITMAP
00
38
10
10
10
10
10
38
00
00
ENDCHAR
STARTCHAR J
ENCODING 74
SWIDTH 666 0
DWIDTH 6 0
BBX 6 10 0 -2
BITMAP
00
1c
04
04
04
04
44
38
00
00
ENDCHAR
STARTCHAR K
ENCODING 75
SWIDTH 666 0
DWIDTH 6 0
BBX 6 10 0 -2
BITMAP
00
44
48
50
60
50
48
44
00
00
ENDCHAR
STARTCHAR L
ENCODING 76
SWIDTH 666 0
DWIDTH 6 0
BBX 6 10 0 -2
BITMAP
00
40
40
40
40
40
40
7c
00
00
ENDCHAR
STARTCHAR M
ENCODING 77
SWIDTH 666 0
DWIDTH 6 0
BBX 6 10 0 -2
BITMAP
00
44
44
6c
54
44
44
44
00
00
ENDCHAR
STARTCHAR N
ENCODING 78
SWIDTH 666 0
DWIDTH 6 0
BBX 6 10 0 -2
BITMAP
00
44
44
64
54
4c
44
44
00
00
ENDCHAR
STARTCHAR O
ENCODING 79
SWIDTH 666 0
DWIDTH 6 0
BBX 6 10 0 -2
BITMAP
00
38
44
44
44
44
44
38
00
00
ENDCHAR
STARTCHAR P
ENCODING 80
SWIDTH 666 0
DWIDTH 6 0
BBX 6 10 0 -2
BITMAP
00
78
44
44
78
40
40
40
00
00
ENDCHAR
STARTCHAR Q
ENCODING 81
SWIDTH 666 0
DWIDTH 6 0
BBX 6 10 0 -2
BITMAP
00
38
44
44
44
44
54
38
04
00
ENDCHAR
STARTCHAR R
ENCODING 82
SWIDTH 666 0
DWIDTH 6 0
BBX 6 10 0 -2
BITMAP
00
78
44
44
78
50
48
44
00
00
ENDCHAR
STARTCHAR S
ENCODING 83
SWIDTH 666 0
DWIDTH 6 0
BBX 6 10 0 -2
BITMAP
00
38
44
40
38
04
44
38
00
00
ENDCHAR
STARTCHAR T
ENCODING 84
SWIDTH 666 0
DWIDTH 6 0
BBX 6 10 0 -2
BITMAP
00
7c
10
10
10
10
10
10
00
00
ENDCHAR
STARTCHAR U
ENCODING 85
SWIDTH 666 0
DWIDTH 6 0
BBX 6 10 0 -2
BITMAP
00
44
44
44
44
44
44
38
00
00
ENDCHAR
STARTCHAR V
ENCODING 86
SWIDTH 666 0
DWIDTH 6 0
BBX 6 10 0 -2
BITMAP
00
44
44
44
28
28
28
10
00
00
ENDCHAR
STARTCHAR W
ENCODING 87
SWIDTH 666 0
DWIDTH 6 0
BBX 6 10 0 -2
BITMAP
00
44
44
44
54
54
6c
44
00
00
ENDCHAR
STARTCHAR X
ENCODING 88
SWIDTH 666 0
DWIDTH 6 0
BBX 6 10 0 -2
BITMAP
00
44
44
28
10
28
44
44
00
00
ENDCHAR
STARTCHAR Y
ENCODING 89
SWIDTH 666 0
DWIDTH 6 0
BBX 6 10 0 -2
BITMAP
00
44
44
28
10
10
10
10
00
00
ENDCHAR
STARTCHAR Z
ENCODING 90
SWIDTH 666 0
DWIDTH 6 0
BBX 6 10 0 -2
BITMAP
00
7c
04
08
10
20
40
7c
00
00
ENDCHAR
STARTCHAR [
ENCODING 91
SWIDTH 666 0
DWIDTH 6 0
BBX 6 10 0 -2
BITMAP
00
38
20
20
20
20
20
38
00
00
ENDCHAR
STARTCHAR \
ENCODING 92
SWIDTH 666 0
DWIDTH 6 0
BBX 6 10 0 -2
BITMAP
00
40
40
20
10
08
04
04
00
00
ENDCHAR
STARTCHAR ]
ENCODING 93
SWIDTH 666 0
DWIDTH 6 0
BBX 6 10 0 -2
BITMAP
00
38
08
08
08
08
08
38
00
00
ENDCHAR
STARTCHAR ^
ENCODING 94
SWIDTH 666 0
DWIDTH 6 0
BBX 6 10 0 -2
BITMAP
00
10
28
44
00
00
00
00
00
00
ENDCHAR
STARTCHAR _
ENCODING 95
SWIDTH 666 0
DWIDTH 6 0
BBX 6 10 0 -2
BITMAP
00
00
00
00
00
00
00
00
7c
00
ENDCHAR
STARTCHAR `
ENCODING 96
SWIDTH 666 0
DWIDTH 6 0
BBX 6 10 0 -2
BITMAP
00
30
10
08
00
00
00
00
00
00
ENDCHAR
STARTCHAR a
ENCODING 97
SWIDTH 666 0
DWIDTH 6 0
BBX 6 10 0 -2
BITMAP
00
00
00
38
04
3c
44
3c
00
00
ENDCHAR
STARTCHAR b
ENCODING 98
SWIDTH 666 0
DWIDTH 6 0
BBX 6 10 0 -2
BITMAP
00
40
40
58
64
44
64
58
00
00
ENDCHAR
STARTCHAR c
ENCODING 99
SWIDTH 666 0
DWIDTH 6 0
BBX 6 10 0 -2
BITMAP
00
00
00
38
44
40
44
38
00
00
ENDCHAR
STARTCHAR d
ENCODING 100
SWIDTH 666 0
DWIDTH 6 0
BBX 6 10 0 -2
BITMAP
00
04
04
34
4c
44
4c
34
00
00
ENDCHAR
STARTCHAR e
ENCODING 101
SWIDTH 666 0
DWIDTH 6 0
BBX 6 10 0 -2
BITMAP
00
00
00
38
44
7c
40
38
00
00
ENDCHAR
STARTCHAR f
ENCODING 102
SWIDTH 666 0
DWIDTH 6 0
BBX 6 10 0 -2
BITMAP
00
18
24
20
78
20
20
20
00
00
ENDCHAR
STARTCHAR g
ENCODING 103
SWIDTH 666 0
DWIDTH 6 0
BBX 6 10 0 -2
BITMAP
00
00
00
34
48
30
40
38
44
38
ENDCHAR
STARTCHAR h
ENCODING 104
SWIDTH 666 0
DWIDTH 6 0
BBX 6 10 0 -2
BITMAP
00
40
40
58
64
44
44
44
00
00
ENDCHAR
STARTCHAR i
ENCODING 105
SWIDTH 666 0
DWIDTH 6 0
BBX 6 10 0 -2
BITMAP
00
10
00
30
10
10
10
38
00
00
ENDCHAR
STARTCHAR j
ENCODING 106
SWIDTH 666 0
DWIDTH 6 0
BBX 6 10 0 -2
BITMAP
00
08
00
18
08
08
08
48
48
30
ENDCHAR
STARTCHAR k
ENCODING 107
SWIDTH 666 0
DWIDTH 6 0
BBX 6 10 0 -2
BITMAP
00
40
40
44
48
70
48
44
00
00
ENDCHAR
STARTCHAR l
ENCODING 108
SWIDTH 666 0
DWIDTH 6 0
BBX 6 10 0 -2
BITMAP
00
30
10
10
10
10
10
38
00
00
ENDCHAR
STARTCHAR m
ENCODING 109
SWIDTH 666 0
DWIDTH 6 0
BBX 6 10 0 -2
BITMAP
00
00
00
68
54
54
54
44
00
00
ENDCHAR
STARTCHAR n
ENCODING 110
SWIDTH 666 0
DWIDTH 6 0
BBX 6 10 0 -2
BITMAP
00
00
00
58
64
44
44
44
00
00
ENDCHAR
STARTCHAR o
ENCODING 111
SWIDTH 666 0
DWIDTH 6 0
BBX 6 10 0 -2
BITMAP
00
00
00
38
44
44
44
38
00
00
ENDCHAR
STARTCHAR p
ENCODING 112
SWIDTH 666 0
DWIDTH 6 0
BBX 6 10 0 -2
BITMAP
00
00
00
58
64
64
58
40
40
40
ENDCHAR
STARTCHAR q
ENCODING 113
SWIDTH 666 0
DWIDTH 6 0
BBX 6 10 0 -2
BITMAP
00
00
00
34
4c
4c
34
04
04
04
ENDCHAR
STARTCHAR r
ENCODING 114
SWIDTH 666 0
DWIDTH 6 0
BBX 6 10 0 -2
BITMAP
00
00
00
58
64
40
40
40
00
00
ENDCHAR
STARTCHAR s
ENCODING 115
SWIDTH 666 0
DWIDTH 6 0
BBX 6 10 0 -2
BITMAP
00
00
00
38
40
38
04
78
00
00
ENDCHAR
STARTCHAR t
ENCODING 116
SWIDTH 666 0
DWIDTH 6 0
BBX 6 10 0 -2
BITMAP
00
20
20
78
20
20
24
18
00
00
ENDCHAR
STARTCHAR u
ENCODING 117
SWIDTH 666 0
DWIDTH 6 0
BBX 6 10 0 -2
BITMAP
00
00
00
44
44
44
4c
34
00
00
ENDCHAR
STARTCHAR v
ENCODING 118
SWIDTH 666 0
DWIDTH 6 0
BBX 6 10 0 -2
BITMAP
00
00
00
44
44
28
28
10
00
00
ENDCHAR
STARTCHAR w
ENCODING 119
SWIDTH 666 0
DWIDTH 6 0
BBX 6 10 0 -2
BITMAP
00
00
00
44
44
54
54
28
00
00
ENDCHAR
STARTCHAR x
ENCODING 120
SWIDTH 666 0
DWIDTH 6 0
BBX 6 10 0 -2
BITMAP
00
00
00
44
28
10
28
44
00
00
ENDCHAR
STARTCHAR y
ENCODING 121
SWIDTH 666 0
DWIDTH 6 0
BBX 6 10 0 -2
BITMAP
00
00
00
44
44
4c
34
04
44
38
ENDCHAR
STARTCHAR z
ENCODING 122
SWIDTH 666 0
DWIDTH 6 0
BBX 6 10 0 -2
BITMAP
00
00
00
7c
08
10
20
7c
00
00
ENDCHAR
STARTCHAR {
ENCODING 123
SWIDTH 666 0
DWIDTH 6 0
BBX 6 10 0 -2
BITMAP
00
0c
10
08
30
08
10
0c
00
00
ENDCHAR
STARTCHAR |
ENCODING 124
SWIDTH 666 0
DWIDTH 6 0
BBX 6 10 0 -2
BITMAP
00
10
10
10
10
10
10
10
00
00
ENDCHAR
STARTCHAR }
ENCODING 125
SWIDTH 666 0
DWIDTH 6 0
BBX 6 10 0 -2
BITMAP
00
60
10
20
18
20
10
60
00
00
ENDCHAR
STARTCHAR ~
ENCODING 126
SWIDTH 666 0
DWIDTH 6 0
BBX 6 10 0 -2
BITMAP
00
24
54
48
00
00
00
00
00
00
ENDCHAR
STARTCHAR C177
ENCODING 127
SWIDTH 666 0
DWIDTH 6 0
BBX 6 10 0 -2
BITMAP
00
00
00
00
00
00
00
00
00
00
ENDCHAR
STARTCHAR C200
ENCODING -1
SWIDTH 666 0
DWIDTH 6 0
BBX 6 10 0 -2
BITMAP
00
00
00
00
00
00
00
00
00
00
ENDCHAR
STARTCHAR C201
ENCODING -1
SWIDTH 666 0
DWIDTH 6 0
BBX 6 10 0 -2
BITMAP
00
00
00
00
00
00
00
00
00
00
ENDCHAR
STARTCHAR C202
ENCODING -1
SWIDTH 666 0
DWIDTH 6 0
BBX 6 10 0 -2
BITMAP
00
00
00
00
00
00
00
00
00
00
ENDCHAR
STARTCHAR C203
ENCODING -1
SWIDTH 666 0
DWIDTH 6 0
BBX 6 10 0 -2
BITMAP
00
00
00
00
00
00
00
00
00
00
ENDCHAR
STARTCHAR C204
ENCODING -1
SWIDTH 666 0
DWIDTH 6 0
BBX 6 10 0 -2
BITMAP
00
00
00
00
00
00
00
00
00
00
ENDCHAR
STARTCHAR C205
ENCODING -1
SWIDTH 666 0
DWIDTH 6 0
BBX 6 10 0 -2
BITMAP
00
00
00
00
00
00
00
00
00
00
ENDCHAR
STARTCHAR C206
ENCODING -1
SWIDTH 666 0
DWIDTH 6 0
BBX 6 10 0 -2
BITMAP
00
00
00
00
00
00
00
00
00
00
ENDCHAR
STARTCHAR C207
ENCODING -1
SWIDTH 666 0
DWIDTH 6 0
BBX 6 10 0 -2
BITMAP
00
00
00
00
00
00
00
00
00
00
ENDCHAR
STARTCHAR C210
ENCODING -1
SWIDTH 666 0
DWIDTH 6 0
BBX 6 10 0 -2
BITMAP
00
00
00
00
00
00
00
00
00
00
ENDCHAR
STARTCHAR C211
ENCODING -1
SWIDTH 666 0
DWIDTH 6 0
BBX 6 10 0 -2
BITMAP
00
00
00
00
00
00
00
00
00
00
ENDCHAR
STARTCHAR C212
ENCODING -1
SWIDTH 666 0
DWIDTH 6 0
BBX 6 10 0 -2
BITMAP
00
00
00
00
00
00
00
00
00
00
ENDCHAR
STARTCHAR C213
ENCODING -1
SWIDTH 666 0
DWIDTH 6 0
BBX 6 10 0 -2
BITMAP
00
00
00
00
00
00
00
00
00
00
ENDCHAR
STARTCHAR C214
ENCODING -1
SWIDTH 666 0
DWIDTH 6 0
BBX 6 10 0 -2
BITMAP
00
00
00
00
00
00
00
00
00
00
ENDCHAR
STARTCHAR C215
ENCODING -1
SWIDTH 666 0
DWIDTH 6 0
BBX 6 10 0 -2
BITMAP
00
00
00
00
00
00
00
00
00
00
ENDCHAR
STARTCHAR C216
ENCODING -1
SWIDTH 666 0
DWIDTH 6 0
BBX 6 10 0 -2
BITMAP
00
00
00
00
00
00
00
00
00
00
ENDCHAR
STARTCHAR C217
ENCODING -1
SWIDTH 666 0
DWIDTH 6 0
BBX 6 10 0 -2
BITMAP
00
00
00
00
00
00
00
00
00
00
ENDCHAR
STARTCHAR C220
ENCODING -1
SWIDTH 666 0
DWIDTH 6 0
BBX 6 10 0 -2
BITMAP
00
00
00
00
00
00
00
00
00
00
ENDCHAR
STARTCHAR C221
ENCODING -1
SWIDTH 666 0
DWIDTH 6 0
BBX 6 10 0 -2
BITMAP
00
00
00
00
00
00
00
00
00
00
ENDCHAR
STARTCHAR C222
ENCODING -1
SWIDTH 666 0
DWIDTH 6 0
BBX 6 10 0 -2
BITMAP
00
00
00
00
00
00
00
00
00
00
ENDCHAR
STARTCHAR C223
ENCODING -1
SWIDTH 666 0
DWIDTH 6 0
BBX 6 10 0 -2
BITMAP
00
00
00
00
00
00
00
00
00
00
ENDCHAR
STARTCHAR C224
ENCODING -1
SWIDTH 666 0
DWIDTH 6 0
BBX 6 10 0 -2
BITMAP
00
00
00
00
00
00
00
00
00
00
ENDCHAR
STARTCHAR C225
ENCODING -1
SWIDTH 666 0
DWIDTH 6 0
BBX 6 10 0 -2
BITMAP
00
00
00
00
00
00
00
00
00
00
ENDCHAR
STARTCHAR C226
ENCODING -1
SWIDTH 666 0
DWIDTH 6 0
BBX 6 10 0 -2
BITMAP
00
00
00
00
00
00
00
00
00
00
ENDCHAR
STARTCHAR C227
ENCODING -1
SWIDTH 666 0
DWIDTH 6 0
BBX 6 10 0 -2
BITMAP
00
00
00
00
00
00
00
00
00
00
ENDCHAR
STARTCHAR C230
ENCODING -1
SWIDTH 666 0
DWIDTH 6 0
BBX 6 10 0 -2
BITMAP
00
00
00
00
00
00
00
00
00
00
ENDCHAR
STARTCHAR C231
ENCODING -1
SWIDTH 666 0
DWIDTH 6 0
BBX 6 10 0 -2
BITMAP
00
00
00
00
00
00
00
00
00
00
ENDCHAR
STARTCHAR C232
ENCODING -1
SWIDTH 666 0
DWIDTH 6 0
BBX 6 10 0 -2
BITMAP
00
00
00
00
00
00
00
00
00
00
ENDCHAR
STARTCHAR C233
ENCODING -1
SWIDTH 666 0
DWIDTH 6 0
BBX 6 10 0 -2
BITMAP
00
00
00
00
00
00
00
00
00
00
ENDCHAR
STARTCHAR C234
ENCODING -1
SWIDTH 666 0
DWIDTH 6 0
BBX 6 10 0 -2
BITMAP
00
00
00
00
00
00
00
00
00
00
ENDCHAR
STARTCHAR C235
ENCODING -1
SWIDTH 666 0
DWIDTH 6 0
BBX 6 10 0 -2
BITMAP
00
00
00
00
00
00
00
00
00
00
ENDCHAR
STARTCHAR C236
ENCODING -1
SWIDTH 666 0
DWIDTH 6 0
BBX 6 10 0 -2
BITMAP
00
00
00
00
00
00
00
00
00
00
ENDCHAR
STARTCHAR C237
ENCODING -1
SWIDTH 666 0
DWIDTH 6 0
BBX 6 10 0 -2
BITMAP
00
00
00
00
00
00
00
00
00
00
ENDCHAR
STARTCHAR C240
ENCODING -1
SWIDTH 666 0
DWIDTH 6 0
BBX 6 10 0 -2
BITMAP
00
00
00
00
00
00
00
00
00
00
ENDCHAR
STARTCHAR C241
ENCODING -1
SWIDTH 666 0
DWIDTH 6 0
BBX 6 10 0 -2
BITMAP
00
00
00
00
00
00
00
00
00
00
ENDCHAR
STARTCHAR C242
ENCODING -1
SWIDTH 666 0
DWIDTH 6 0
BBX 6 10 0 -2
BITMAP
00
00
00
00
00
00
00
00
00
00
ENDCHAR
STARTCHAR yo
ENCODING 241
SWIDTH 666 0
DWIDTH 6 0
BBX 6 10 0 -2
BITMAP
28
28
00
38
44
7c
40
38
00
00
ENDCHAR
STARTCHAR C244
ENCODING -1
SWIDTH 666 0
DWIDTH 6 0
BBX 6 10 0 -2
BITMAP
00
00
00
00
00
00
00
00
00
00
ENDCHAR
STARTCHAR C245
ENCODING -1
SWIDTH 666 0
DWIDTH 6 0
BBX 6 10 0 -2
BITMAP
00
00
00
00
00
00
00
00
00
00
ENDCHAR
STARTCHAR C246
ENCODING -1
SWIDTH 666 0
DWIDTH 6 0
BBX 6 10 0 -2
BITMAP
00
00
00
00
00
00
00
00
00
00
ENDCHAR
STARTCHAR C247
ENCODING -1
SWIDTH 666 0
DWIDTH 6 0
BBX 6 10 0 -2
BITMAP
00
00
00
00
00
00
00
00
00
00
ENDCHAR
STARTCHAR C250
ENCODING -1
SWIDTH 666 0
DWIDTH 6 0
BBX 6 10 0 -2
BITMAP
00
00
00
00
00
00
00
00
00
00
ENDCHAR
STARTCHAR C251
ENCODING -1
SWIDTH 666 0
DWIDTH 6 0
BBX 6 10 0 -2
BITMAP
00
00
00
00
00
00
00
00
00
00
ENDCHAR
STARTCHAR C252
ENCODING -1
SWIDTH 666 0
DWIDTH 6 0
BBX 6 10 0 -2
BITMAP
00
00
00
00
00
00
00
00
00
00
ENDCHAR
STARTCHAR C253
ENCODING -1
SWIDTH 666 0
DWIDTH 6 0
BBX 6 10 0 -2
BITMAP
00
00
00
00
00
00
00
00
00
00
ENDCHAR
STARTCHAR C254
ENCODING -1
SWIDTH 666 0
DWIDTH 6 0
BBX 6 10 0 -2
BITMAP
00
00
00
00
00
00
00
00
00
00
ENDCHAR
STARTCHAR C255
ENCODING -1
SWIDTH 666 0
DWIDTH 6 0
BBX 6 10 0 -2
BITMAP
00
00
00
00
00
00
00
00
00
00
ENDCHAR
STARTCHAR C256
ENCODING -1
SWIDTH 666 0
DWIDTH 6 0
BBX 6 10 0 -2
BITMAP
00
00
00
00
00
00
00
00
00
00
ENDCHAR
STARTCHAR C257
ENCODING -1
SWIDTH 666 0
DWIDTH 6 0
BBX 6 10 0 -2
BITMAP
00
00
00
00
00
00
00
00
00
00
ENDCHAR
STARTCHAR C260
ENCODING -1
SWIDTH 666 0
DWIDTH 6 0
BBX 6 10 0 -2
BITMAP
00
00
00
00
00
00
00
00
00
00
ENDCHAR
STARTCHAR C261
ENCODING -1
SWIDTH 666 0
DWIDTH 6 0
BBX 6 10 0 -2
BITMAP
00
00
00
00
00
00
00
00
00
00
ENDCHAR
STARTCHAR C262
ENCODING -1
SWIDTH 666 0
DWIDTH 6 0
BBX 6 10 0 -2
BITMAP
00
00
00
00
00
00
00
00
00
00
ENDCHAR
STARTCHAR YO
ENCODING 240
SWIDTH 666 0
DWIDTH 6 0
BBX 6 10 0 -2
BITMAP
28
7c
40
40
78
40
40
7c
00
00
ENDCHAR
STARTCHAR C264
ENCODING -1
SWIDTH 666 0
DWIDTH 6 0
BBX 6 10 0 -2
BITMAP
00
00
00
00
00
00
00
00
00
00
ENDCHAR
STARTCHAR C265
ENCODING -1
SWIDTH 666 0
DWIDTH 6 0
BBX 6 10 0 -2
BITMAP
00
00
00
00
00
00
00
00
00
00
ENDCHAR
STARTCHAR C266
ENCODING -1
SWIDTH 666 0
DWIDTH 6 0
BBX 6 10 0 -2
BITMAP
00
00
00
00
00
00
00
00
00
00
ENDCHAR
STARTCHAR C267
ENCODING -1
SWIDTH 666 0
DWIDTH 6 0
BBX 6 10 0 -2
BITMAP
00
00
00
00
00
00
00
00
00
00
ENDCHAR
STARTCHAR C270
ENCODING -1
SWIDTH 666 0
DWIDTH 6 0
BBX 6 10 0 -2
BITMAP
00
00
00
00
00
00
00
00
00
00
ENDCHAR
STARTCHAR C271
ENCODING -1
SWIDTH 666 0
DWIDTH 6 0
BBX 6 10 0 -2
BITMAP
00
00
00
00
00
00
00
00
00
00
ENDCHAR
STARTCHAR C272
ENCODING -1
SWIDTH 666 0
DWIDTH 6 0
BBX 6 10 0 -2
BITMAP
00
00
00
00
00
00
00
00
00
00
ENDCHAR
STARTCHAR C273
ENCODING -1
SWIDTH 666 0
DWIDTH 6 0
BBX 6 10 0 -2
BITMAP
00
00
00
00
00
00
00
00
00
00
ENDCHAR
STARTCHAR C274
ENCODING -1
SWIDTH 666 0
DWIDTH 6 0
BBX 6 10 0 -2
BITMAP
00
00
00
00
00
00
00
00
00
00
ENDCHAR
STARTCHAR C275
ENCODING -1
SWIDTH 666 0
DWIDTH 6 0
BBX 6 10 0 -2
BITMAP
00
00
00
00
00
00
00
00
00
00
ENDCHAR
STARTCHAR C276
ENCODING -1
SWIDTH 666 0
DWIDTH 6 0
BBX 6 10 0 -2
BITMAP
00
00
00
00
00
00
00
00
00
00
ENDCHAR
STARTCHAR C277
ENCODING -1
SWIDTH 666 0
DWIDTH 6 0
BBX 6 10 0 -2
BITMAP
00
00
00
00
00
00
00
00
00
00
ENDCHAR
STARTCHAR you
ENCODING 238
SWIDTH 666 0
DWIDTH 6 0
BBX 6 10 0 -2
BITMAP
00
00
00
48
54
74
54
48
00
00
ENDCHAR
STARTCHAR ah
ENCODING 160
SWIDTH 666 0
DWIDTH 6 0
BBX 6 10 0 -2
BITMAP
00
00
00
38
44
44
7c
44
00
00
ENDCHAR
STARTCHAR beh
ENCODING 161
SWIDTH 666 0
DWIDTH 6 0
BBX 6 10 0 -2
BITMAP
00
00
00
78
40
78
44
78
00
00
ENDCHAR
STARTCHAR tseh
ENCODING 230
SWIDTH 666 0
DWIDTH 6 0
BBX 6 10 0 -2
BITMAP
00
00
00
48
48
48
48
7c
04
08
ENDCHAR
STARTCHAR deh
ENCODING 164
SWIDTH 666 0
DWIDTH 6 0
BBX 6 10 0 -2
BITMAP
00
00
00
10
28
28
28
7c
44
00
ENDCHAR
STARTCHAR yeh
ENCODING 165
SWIDTH 666 0
DWIDTH 6 0
BBX 6 10 0 -2
BITMAP
00
00
00
38
44
7c
40
38
00
00
ENDCHAR
STARTCHAR ef
ENCODING 228
SWIDTH 666 0
DWIDTH 6 0
BBX 7 10 0 -2
BITMAP
00
00
10
38
54
54
54
38
10
00
ENDCHAR
STARTCHAR geh
ENCODING 163
SWIDTH 666 0
DWIDTH 6 0
BBX 6 10 0 -2
BITMAP
00
00
00
7c
44
40
40
40
00
00
ENDCHAR
STARTCHAR kh
ENCODING 229
SWIDTH 666 0
DWIDTH 6 0
BBX 6 10 0 -2
BITMAP
00
00
00
44
28
10
28
44
00
00
ENDCHAR
STARTCHAR ee
ENCODING 168
SWIDTH 666 0
DWIDTH 6 0
BBX 6 10 0 -2
BITMAP
00
00
00
44
4c
54
64
44
00
00
ENDCHAR
STARTCHAR e-kratkoe
ENCODING 169
SWIDTH 666 0
DWIDTH 6 0
BBX 6 10 0 -2
BITMAP
08
10
10
44
4c
54
64
44
00
00
ENDCHAR
STARTCHAR keh
ENCODING 170
SWIDTH 666 0
DWIDTH 6 0
BBX 6 10 0 -2
BITMAP
00
00
00
44
48
70
48
44
00
00
ENDCHAR
STARTCHAR el
ENCODING 171
SWIDTH 666 0
DWIDTH 6 0
BBX 6 10 0 -2
BITMAP
00
00
00
1c
24
24
24
44
00
00
ENDCHAR
STARTCHAR em
ENCODING 172
SWIDTH 666 0
DWIDTH 6 0
BBX 6 10 0 -2
BITMAP
00
00
00
44
6c
54
54
44
00
00
ENDCHAR
STARTCHAR en
ENCODING 173
SWIDTH 666 0
DWIDTH 6 0
BBX 6 10 0 -2
BITMAP
00
00
00
44
44
7c
44
44
00
00
ENDCHAR
STARTCHAR oh
ENCODING 174
SWIDTH 666 0
DWIDTH 6 0
BBX 6 10 0 -2
BITMAP
00
00
00
38
44
44
44
38
00
00
ENDCHAR
STARTCHAR peh
ENCODING 175
SWIDTH 666 0
DWIDTH 6 0
BBX 6 10 0 -2
BITMAP
00
00
00
7c
44
44
44
44
00
00
ENDCHAR
STARTCHAR yah
ENCODING 239
SWIDTH 666 0
DWIDTH 6 0
BBX 6 10 0 -2
BITMAP
00
00
00
3c
44
3c
14
64
00
00
ENDCHAR
STARTCHAR er
ENCODING 224
SWIDTH 666 0
DWIDTH 6 0
BBX 6 10 0 -2
BITMAP
00
00
00
78
44
78
40
40
00
00
ENDCHAR
STARTCHAR es
ENCODING 225
SWIDTH 666 0
DWIDTH 6 0
BBX 6 10 0 -2
BITMAP
00
00
00
38
44
40
40
3c
00
00
ENDCHAR
STARTCHAR teh
ENCODING 226
SWIDTH 666 0
DWIDTH 6 0
BBX 6 10 0 -2
BITMAP
00
00
00
7c
54
10
10
10
00
00
ENDCHAR
STARTCHAR oo
ENCODING 227
SWIDTH 666 0
DWIDTH 6 0
BBX 6 10 0 -2
BITMAP
00
00
00
44
44
3c
04
38
00
00
ENDCHAR
STARTCHAR zheh
ENCODING 166
SWIDTH 666 0
DWIDTH 6 0
BBX 6 10 0 -2
BITMAP
00
00
00
54
38
10
38
54
00
00
ENDCHAR
STARTCHAR veh
ENCODING 162
SWIDTH 666 0
DWIDTH 6 0
BBX 6 10 0 -2
BITMAP
00
00
00
78
44
78
44
78
00
00
ENDCHAR
STARTCHAR soft sign
ENCODING 236
SWIDTH 666 0
DWIDTH 6 0
BBX 6 10 0 -2
BITMAP
00
00
00
40
40
78
44
78
00
00
ENDCHAR
STARTCHAR ery
ENCODING 235
SWIDTH 666 0
DWIDTH 6 0
BBX 6 10 0 -2
BITMAP
00
00
00
44
44
74
54
74
00
00
ENDCHAR
STARTCHAR zeh
ENCODING 167
SWIDTH 666 0
DWIDTH 6 0
BBX 7 10 0 -2
BITMAP
00
00
00
38
44
18
44
38
00
00
ENDCHAR
STARTCHAR shah
ENCODING 232
SWIDTH 666 0
DWIDTH 6 0
BBX 6 10 0 -2
BITMAP
00
00
00
54
54
54
54
7c
00
00
ENDCHAR
STARTCHAR eh
ENCODING 237
SWIDTH 666 0
DWIDTH 6 0
BBX 6 10 0 -2
BITMAP
00
00
00
78
04
1c
04
78
00
00
ENDCHAR
STARTCHAR shchah
ENCODING 233
SWIDTH 666 0
DWIDTH 6 0
BBX 6 10 0 -2
BITMAP
00
00
00
54
54
54
54
7c
04
08
ENDCHAR
STARTCHAR cheh
ENCODING 231
SWIDTH 666 0
DWIDTH 6 0
BBX 6 10 0 -2
BITMAP
00
00
00
44
44
3c
04
04
00
00
ENDCHAR
STARTCHAR hard sigh
ENCODING 234
SWIDTH 666 0
DWIDTH 6 0
BBX 6 10 0 -2
BITMAP
00
00
00
60
20
38
24
38
00
00
ENDCHAR
STARTCHAR YOU
ENCODING 158
SWIDTH 666 0
DWIDTH 6 0
BBX 7 10 0 -2
BITMAP
00
48
54
54
74
54
54
48
00
00
ENDCHAR
STARTCHAR AH
ENCODING 128
SWIDTH 666 0
DWIDTH 6 0
BBX 7 10 0 -2
BITMAP
00
18
24
44
44
7c
44
44
00
00
ENDCHAR
STARTCHAR BEH
ENCODING 129
SWIDTH 666 0
DWIDTH 6 0
BBX 6 10 0 -2
BITMAP
00
78
40
40
78
44
44
78
00
00
ENDCHAR
STARTCHAR TSEH
ENCODING 150
SWIDTH 666 0
DWIDTH 6 0
BBX 6 10 0 -2
BITMAP
00
48
48
48
48
48
48
7c
04
08
ENDCHAR
STARTCHAR DEH
ENCODING 132
SWIDTH 666 0
DWIDTH 6 0
BBX 6 10 0 -2
BITMAP
00
18
28
28
28
28
28
7c
44
00
ENDCHAR
STARTCHAR YEH
ENCODING 133
SWIDTH 666 0
DWIDTH 6 0
BBX 6 10 0 -2
BITMAP
00
7c
40
40
78
40
40
7c
00
00
ENDCHAR
STARTCHAR EF
ENCODING 148
SWIDTH 666 0
DWIDTH 6 0
BBX 6 10 0 -2
BITMAP
10
38
54
54
54
54
38
10
10
00
ENDCHAR
STARTCHAR GEH
ENCODING 131
SWIDTH 666 0
DWIDTH 6 0
BBX 6 10 0 -2
BITMAP
00
7c
44
40
40
40
40
40
00
00
ENDCHAR
STARTCHAR KH
ENCODING 149
SWIDTH 666 0
DWIDTH 6 0
BBX 6 10 0 -2
BITMAP
00
44
28
28
10
28
28
44
00
00
ENDCHAR
STARTCHAR EE
ENCODING 136
SWIDTH 666 0
DWIDTH 6 0
BBX 6 10 0 -2
BITMAP
00
44
44
4c
54
54
64
44
00
00
ENDCHAR
STARTCHAR E-KRATKOE
ENCODING 137
SWIDTH 666 0
DWIDTH 6 0
BBX 6 10 0 -2
BITMAP
18
54
44
4c
54
54
64
44
00
00
ENDCHAR
STARTCHAR KEH
ENCODING 138
SWIDTH 666 0
DWIDTH 6 0
BBX 6 10 0 -2
BITMAP
00
44
48
50
70
48
44
44
00
00
ENDCHAR
STARTCHAR EL
ENCODING 139
SWIDTH 666 0
DWIDTH 6 0
BBX 6 10 0 -2
BITMAP
00
1c
24
24
24
24
44
44
00
00
ENDCHAR
STARTCHAR EM
ENCODING 140
SWIDTH 666 0
DWIDTH 6 0
BBX 6 10 0 -2
BITMAP
00
44
6c
54
54
44
44
44
00
00
ENDCHAR
STARTCHAR EN
ENCODING 141
SWIDTH 666 0
DWIDTH 6 0
BBX 6 10 0 -2
BITMAP
00
44
44
44
7c
44
44
44
00
00
ENDCHAR
STARTCHAR OH
ENCODING 142
SWIDTH 666 0
DWIDTH 6 0
BBX 6 10 0 -2
BITMAP
00
38
44
44
44
44
44
38
00
00
ENDCHAR
STARTCHAR PEH
ENCODING 143
SWIDTH 666 0
DWIDTH 6 0
BBX 6 10 0 -2
BITMAP
00
7c
44
44
44
44
44
44
00
00
ENDCHAR
STARTCHAR YAH
ENCODING 159
SWIDTH 666 0
DWIDTH 6 0
BBX 6 10 0 -2
BITMAP
00
3c
44
44
3c
14
24
44
00
00
ENDCHAR
STARTCHAR ER
ENCODING 144
SWIDTH 666 0
DWIDTH 6 0
BBX 6 10 0 -2
BITMAP
00
78
44
44
44
78
40
40
00
00
ENDCHAR
STARTCHAR ES
ENCODING 145
SWIDTH 666 0
DWIDTH 6 0
BBX 6 10 0 -2
BITMAP
00
38
44
40
40
40
44
38
00
00
ENDCHAR
STARTCHAR TEH
ENCODING 146
SWIDTH 666 0
DWIDTH 6 0
BBX 6 10 0 -2
BITMAP
00
7c
10
10
10
10
10
10
00
00
ENDCHAR
STARTCHAR OO
ENCODING 147
SWIDTH 666 0
DWIDTH 6 0
BBX 6 10 0 -2
BITMAP
00
44
44
44
3c
04
04
38
00
00
ENDCHAR
STARTCHAR ZHEH
ENCODING 134
SWIDTH 666 0
DWIDTH 6 0
BBX 6 10 0 -2
BITMAP
00
54
54
38
10
38
54
54
00
00
ENDCHAR
STARTCHAR VEH
ENCODING 130
SWIDTH 666 0
DWIDTH 6 0
BBX 6 10 0 -2
BITMAP
00
78
44
44
78
44
44
78
00
00
ENDCHAR
STARTCHAR SOFT SIGN
ENCODING 156
SWIDTH 666 0
DWIDTH 6 0
BBX 6 10 0 -2
BITMAP
00
40
40
40
78
44
44
78
00
00
ENDCHAR
STARTCHAR ERY
ENCODING 155
SWIDTH 666 0
DWIDTH 6 0
BBX 6 10 0 -2
BITMAP
00
44
44
44
64
54
54
64
00
00
ENDCHAR
STARTCHAR ZEH
ENCODING 135
SWIDTH 666 0
DWIDTH 6 0
BBX 6 10 0 -2
BITMAP
00
38
44
04
18
04
44
38
00
00
ENDCHAR
STARTCHAR SHAH
ENCODING 152
SWIDTH 666 0
DWIDTH 6 0
BBX 6 10 0 -2
BITMAP
00
54
54
54
54
54
54
7c
00
00
ENDCHAR
STARTCHAR EH
ENCODING 157
SWIDTH 666 0
DWIDTH 6 0
BBX 6 10 0 -2
BITMAP
00
70
08
04
3c
04
08
70
00
00
ENDCHAR
STARTCHAR SHCHAH
ENCODING 153
SWIDTH 666 0
DWIDTH 6 0
BBX 7 10 0 -2
BITMAP
00
54
54
54
54
54
54
7e
04
08
ENDCHAR
STARTCHAR CHEH
ENCODING 151
SWIDTH 666 0
DWIDTH 6 0
BBX 6 10 0 -2
BITMAP
00
44
44
44
3c
04
04
04
00
00
ENDCHAR
STARTCHAR HARD SIGH
ENCODING 154
SWIDTH 666 0
DWIDTH 6 0
BBX 6 10 0 -2
BITMAP
00
60
20
20
38
24
24
38
00
00
ENDCHAR
ENDFONT
